<?xml version="1.0" encoding="utf-8"?>
<svg xmlns="http://www.w3.org/2000/svg" width="173" height="28" viewBox=" 0 0 173 28">
<style type="text/css">
	.st0{fill:#005634;}
	.st1{fill:#312a28;}
</style>
<g>
	<rect x="161.4" class="st0" width="11.6" height="11.6"/>
	<g>
		<path class="st1" d="M149.7,18.6L149.7,18.6c-0.2-0.2-0.4-0.4-0.6-0.6c-0.4,0-0.8-0.2-1.2-0.2h-4.4v2.8h3v3.6
			c-0.2,0.2-0.6,0.2-1,0.2c-0.4,0-0.8,0-1,0c-0.8,0-1.4-0.2-2-0.4c-0.6-0.2-1-0.6-1.4-1.2c-0.4-0.6-0.6-1-0.8-1.8
			c-0.2-0.6-0.2-1.4-0.2-2.2c0-1.8,0.4-3.2,1.2-4.2c0.8-1,2-1.6,3.4-1.6c0.8,0,1.4,0,2,0.2s1.4,0.4,2,0.8h0.2l0.8-2.8l0,0
			c-0.8-0.4-1.4-0.6-2.2-0.8c-0.8-0.2-1.6-0.4-2.8-0.4c-2.6,0-4.8,0.8-6,2.2c-1.4,1.6-2,3.6-2,6.4s0.8,4.8,2,6.2
			c1.4,1.4,3.4,2.2,6,2.2c0.8,0,1.8-0.2,2.6-0.4c1-0.2,1.8-0.8,2.6-1.6l0,0v-5.2c0-0.4,0-0.8,0-1C149.9,19.2,149.7,18.8,149.7,18.6z
			"/>
		<path class="st1" d="M156.8,24.1l3.6-4c0.8-0.8,1.2-1.6,1.6-2.4c0.4-0.6,0.6-1.6,0.6-2.6c0-1.4-0.4-2.6-1.2-3.4
			c-0.8-0.8-2.2-1.2-4-1.2c-0.8,0-1.8,0.2-2.6,0.4c-0.8,0.2-1.6,0.4-2.2,0.8l0,0l0.8,2.6h0.2c0.6-0.2,1.2-0.4,1.8-0.6
			c0.6-0.2,1.2-0.4,1.8-0.4s1,0.2,1.4,0.4s0.6,0.8,0.6,1.6c0,0.6-0.2,1.2-0.4,1.6c-0.2,0.4-0.6,1-1.2,1.4l-5.4,6l0,0v2.4h10.6v-2.6
			H156.8z"/>
	</g>
	<g>
		<path class="st1" d="M9,22.9c0-1.2-1-1.4-1.6-1.8c-1.4-0.6-2-0.8-3.6-1.2c-2.6-1-3.8-2-3.8-4.6c0-3.4,2.8-4.8,6.4-4.8
			c1.8,0,3.6,0.4,5.6,1.4l-0.8,2.6c-2.2-0.8-3.4-1.2-4.6-1.2c-2,0-2.8,0.8-2.8,2c0,0.8,0.6,1.2,1.6,1.6C7,17.4,7.6,17.6,8.8,18
			c2.2,0.8,4,1.8,4,4.6c0,3.4-2,5.4-6.8,5.4c-2,0-4-0.6-6-1.6l1.2-2.8c1.8,0.8,3.2,1.6,5,1.6C8.2,25.1,9,24.1,9,22.9z"/>
		<path class="st1" d="M19.6,27.7H16V10.8h3.6V27.7z"/>
		<path class="st1" d="M30.3,18h4.8c2,0,2,1,2,2.6v5.4c-1.6,1.6-4,2-5.8,2c-5.6,0-8.8-3-8.8-8.6s3-9,8.8-9c2.4,0,3.8,0.6,5.4,1.2
			l-0.8,2.6c-1.6-0.8-3-1.2-4.6-1.2c-3.6,0-5.2,2.4-5.2,6c0,3.2,1.6,5.8,5.2,5.8c0.6,0,1.8-0.2,2.4-0.4v-4h-3.4
			C30.3,20.4,30.3,18,30.3,18z"/>
		<path class="st1" d="M43.7,10.8l7.4,11v-11h3.6v16.8h-3.6l-7.4-11v11h-3.6V10.8H43.7z"/>
		<path class="st1" d="M72.8,27.7h-3.6L68,24.1h-6.6l-1.2,3.6h-3.6l6-16.8h4.2L72.8,27.7z M67.2,21.7l-2.6-7.8l-2.4,7.8H67.2z"/>
		<path class="st1" d="M84.8,13.4H80v14h-3.8v-14h-4.8v-2.6h13.4V13.4z"/>
		<path class="st1" d="M90.2,10.8v10.4c0,2.8,0.6,3.8,3.2,3.8s3.2-1.2,3.2-3.8V10.8h3.6v10.6c0,4.6-2.2,6.4-6.8,6.4
			c-5.2,0-6.8-2.6-6.8-6.4V10.8H90.2z"/>
		<path class="st1" d="M115.9,15.8c0,2.8-1,4.2-3.2,4.8c0.6,0.6,1,1.4,1.6,2.4l2.2,4.4h-3.6l-1.6-3.4c-0.6-1.4-1.4-3-2.8-3.2h-1.8
			v6.6H103v-14c0-2.4,1-3.2,3.6-3.2h3.2C114.5,10.4,115.9,12.4,115.9,15.8z M107.6,13c-1,0-1.2,0.4-1.2,1v4.2h2.8
			c2,0,2.8-0.6,2.8-2.4c0-1.8-0.8-2.8-2.8-2.8C109.3,13,107.6,13,107.6,13z"/>
		<path class="st1" d="M129.9,13.4h-6.8c-1,0-1.2,0.4-1.2,1v3.2h7.8v2.8h-7.8v3.4c0,0.8,0.2,1,1.2,1h7v2.6h-8.2
			c-2.4,0-3.6-0.8-3.6-3.2V14c0-2.4,1-3.2,3.6-3.2h8V13.4z"/>
	</g>
</g>
</svg>
