<?xml version="1.0" encoding="utf-8"?>
<svg xmlns="http://www.w3.org/2000/svg" width="217" height="28" viewBox=" 0 0 217 28">
<style type="text/css">
	.st0{fill:#00677B;}
	.st1{fill:#312a28;}
</style>
<g>
	<rect x="205.3" class="st0" width="11.7" height="11.7"/>
	<g>
		<path class="st1" d="M149,10.9c0.8,0.2,1.4,0.4,2,0.6c0.6,0.4,1,0.8,1.4,1.4c0.2,0.6,0.4,1.4,0.4,2.2c0,1-0.2,2-0.6,2.6
			c-0.4,0.6-1,1.2-2,1.4c1,0.2,1.8,0.6,2.2,1.2s0.6,1.6,0.6,2.8c0,1-0.2,1.8-0.6,2.4c-0.4,0.6-0.8,1.2-1.4,1.4
			c-0.6,0.4-1.2,0.6-2,0.8c-0.8,0.2-1.6,0.2-2.4,0.2h-3c-1.2,0-2.2-0.2-2.6-0.8c-0.6-0.4-0.8-1.4-0.8-2.6V13.9c0-1.2,0.2-2,0.8-2.6
			c0.6-0.4,1.4-0.8,2.6-0.8h2.8C147.4,10.7,148.2,10.7,149,10.9z M145,13.5c-0.4,0-0.8,0-0.8,0.2c-0.2,0.2-0.2,0.4-0.2,0.8v3.4h2.6
			c1,0,1.6-0.2,2-0.6s0.6-1,0.6-1.8c0-0.8-0.2-1.4-0.6-1.6c-0.4-0.4-1-0.6-2-0.6H145V13.5z M148.8,24.7c0.4-0.4,0.6-1,0.6-2
			c0-0.8-0.2-1.4-0.6-1.6c-0.4-0.4-1.2-0.4-2-0.4H144v3.6c0,0.4,0,0.6,0.2,0.8c0.2,0.2,0.4,0.2,0.8,0.2h1.6
			C147.6,25.3,148.4,25.1,148.8,24.7z"/>
		<path class="st1" d="M170.1,28h-3.6l-1.2-3.8h-6.4l-1.2,3.6h-3.6l6-17.1h4.2L170.1,28z M164.5,21.7l-2.4-7.8l-2.4,7.8H164.5z"/>
		<path class="st1" d="M179.2,24.5c0.4-0.4,0.6-1,0.6-1.6c0-0.2,0-0.6-0.2-0.8c-0.2-0.2-0.2-0.4-0.4-0.6c-0.2-0.2-0.4-0.2-0.6-0.4
			c-0.2,0-0.4-0.2-0.6-0.2c-0.4-0.2-0.6-0.2-0.8-0.4c-0.2,0-0.4-0.2-0.8-0.2c-0.2,0-0.6-0.2-0.8-0.2c-0.2,0-0.6,0-1-0.2
			c-1.2-0.4-2.2-1-2.8-1.6c-0.6-0.6-1-1.6-1-3c0-0.8,0.2-1.6,0.6-2.2c0.4-0.6,0.8-1.2,1.4-1.6c0.6-0.4,1.2-0.6,2-0.8
			c0.8-0.2,1.6-0.2,2.6-0.2c0.8,0,1.6,0.2,2.6,0.4c1,0.2,1.8,0.6,2.8,1l-0.8,2.8c-1-0.4-2-0.8-2.6-1c-0.6-0.2-1.4-0.4-2-0.4
			c-1,0-1.6,0.2-2,0.6c-0.4,0.4-0.6,0.8-0.6,1.4c0,0.4,0.2,0.8,0.4,1s0.6,0.4,1.2,0.6c0.4,0.2,0.6,0.2,1,0.4
			c0.2,0.2,0.6,0.2,0.8,0.2s0.6,0.2,0.8,0.2c0,0.4,0.2,0.4,0.6,0.6c0.6,0.2,1,0.4,1.6,0.6c0.4,0.2,0.8,0.6,1.2,0.8
			c0.4,0.4,0.6,0.8,0.8,1.2s0.4,1,0.4,1.8c0,1.6-0.6,3-1.6,3.8c-1,1-2.8,1.4-5,1.4c-1,0-2-0.2-3-0.4c-1-0.2-2-0.6-3-1.2l1.2-2.8
			c0.4,0.2,0.8,0.4,1.2,0.6s0.8,0.4,1.2,0.4c0.4,0.2,0.8,0.2,1.2,0.4c0.4,0,0.8,0.2,1.2,0.2C178,25.3,178.6,25.1,179.2,24.5z"/>
		<path class="st1" d="M189.4,28h-3.6V10.7h3.6V28z"/>
		<path class="st1" d="M205.3,26.9c-0.6,0.4-1.4,0.6-2.2,0.8c-1,0.4-2,0.4-3,0.4c-2.8,0-5-0.8-6.4-2.4c-1.4-1.6-2.2-3.6-2.2-6.4
			s0.8-5,2.2-6.6c1.4-1.6,3.6-2.4,6.4-2.4c0.6,0,1.2,0,1.8,0c0.4,0,1,0.2,1.4,0.2s0.8,0.2,1.2,0.4s0.6,0.4,1,0.4l-0.8,2.8
			c-0.8-0.4-1.4-0.6-2.2-0.8c-0.6-0.2-1.4-0.2-2.2-0.2c-1.6,0-2.8,0.6-3.6,1.6c-1,1.4-1.6,2.8-1.6,4.8c0,1.8,0.4,3.4,1.4,4.4
			c1,1,2,1.6,3.4,1.6c0.6,0,1.4,0,2.2-0.2c0.8-0.2,1.6-0.4,2.2-0.8L205.3,26.9z"/>
	</g>
	<g>
		<path class="st1" d="M9.1,23.1c0-1.2-1-1.4-1.6-1.8c-1.4-0.4-2-0.6-3.6-1.2c-2.6-1-3.8-2-3.8-4.6c0-3.4,3-4.8,6.6-4.8
			c1.6,0,3.4,0.6,5.4,1.4l-0.8,2.8c-2.2-1-3.4-1.4-4.6-1.4c-2,0-2.8,0.8-2.8,2c0,0.8,0.6,1.2,1.6,1.6c1.6,0.8,2.2,1,3.4,1.4
			c2.2,0.8,4,1.8,4,4.6c0,3.2-2,5.2-6.8,5.2c-2,0-4-0.6-6-1.6l1.2-2.8c1.8,0.8,3.2,1.6,5,1.6C8.2,25.3,9.1,24.3,9.1,23.1z"/>
		<path class="st1" d="M19.7,28h-3.6V11.1h3.6V28z"/>
		<path class="st1" d="M30.4,18.3h4.8c2,0,2,1,2,2.6v5.4c-1.6,1.6-4,2-5.8,2c-5.6,0-8.8-3-8.8-8.6s3-9.1,8.8-9.1
			c2.4,0,3.8,0.6,5.4,1.2L36,14.5c-1.6-0.8-3-1.2-4.6-1.2c-3.6,0-5.2,2.4-5.2,6c0,3.2,1.6,5.8,5.2,5.8c0.6,0,1.8-0.2,2.4-0.4v-4
			h-3.4C30.4,20.7,30.4,18.3,30.4,18.3z"/>
		<path class="st1" d="M43.8,11.1l7.4,11.1V11.1h3.6V28h-3.6l-7.4-11.1V28h-3.6V11.1H43.8z"/>
		<path class="st1" d="M73,28h-3.6l-1.2-3.6h-6.6L60.3,28h-3.6l6-16.9H67L73,28z M67.4,21.9l-2.6-7.8l-2.4,7.8H67.4z"/>
		<path class="st1" d="M85.1,13.9h-4.8V28h-3.8V13.9h-4.8v-2.8h13.5V13.9z"/>
		<path class="st1" d="M90.5,11.1v10.5c0,2.8,0.6,3.8,3.2,3.8s3.2-1.2,3.2-3.8V11.1h3.6v10.7c0,4.6-2.2,6.4-6.8,6.4
			c-5.2,0-6.8-2.6-6.8-6.4V11.1H90.5z"/>
		<path class="st1" d="M116.2,16.1c0,2.8-1,4.2-3.2,4.8c0.6,0.6,1,1.4,1.6,2.4l2.2,4.4h-3.6l-1.6-3.4c-0.6-1.4-1.4-3-2.8-3.2H107
			v6.6h-3.6V13.7c0-2.4,1-3.2,3.6-3.2h3.2C114.8,10.7,116.2,12.9,116.2,16.1z M108,13.3c-1,0-1.2,0.4-1.2,1v4.2h2.8
			c2.2,0.2,3-0.4,3-2.4c0-1.8-0.8-2.8-2.8-2.8H108z"/>
		<path class="st1" d="M130.3,13.7h-6.8c-1,0-1.2,0.4-1.2,1v3.4h7.8v2.8h-7.8v3.2c0,0.8,0.2,1,1.2,1h7v2.6h-8.2
			c-2.4,0-3.6-0.8-3.6-3.2V14.3c0-2.4,1-3.2,3.6-3.2h8V13.7z"/>
	</g>
</g>
</svg>
