<?xml version="1.0" encoding="utf-8"?>
<svg xmlns="http://www.w3.org/2000/svg" width="218" height="28" viewBox=" 0 0 218 28">
<style type="text/css">
	.st0{fill:#6B3590;}
	.st1{fill:#FFFFFF;}
</style>
<g>
	<rect x="206.5" class="st0" width="11.1" height="11.1"/>
	<g>
		<path class="st1" d="M187.4,24.2c1.2-2.7,3.1-8.8,3.1-12.8h3.3c0,5-2.7,12.3-4.6,15.9h-3.6c-1.9-3.6-4.6-10.9-4.6-15.9h3.3
			C184.3,15.5,186.2,21.5,187.4,24.2z"/>
		<g>
			<path class="st1" d="M154,10.5c1.9,0,3.5,0.4,4.6,1.3c1,1,1.5,2.3,1.5,4h-3.3c0-1-0.2-1.7-0.6-2.1c-0.4-0.4-1.2-0.8-2.1-0.8
				s-1.5,0.4-2.1,1.2c-0.4,0.8-0.8,1.7-0.8,2.9v4.4c0,1.2,0.2,2.1,0.8,2.9s1.3,1.2,2.3,1.2s1.5-0.2,1.9-0.8c0.2-0.4,0.4-0.8,0.6-1.3
				c0-0.4,0.4-0.8,0.8-0.8h2.5c0,1.7-0.6,3.1-1.5,4c-1,1-2.5,1.3-4.4,1.3c-1.9,0-3.5-0.6-4.6-1.7c-1.2-1.2-1.7-2.7-1.7-4.8v-4.4
				c0-1.9,0.6-3.5,1.7-4.6C150.7,11.1,152.1,10.5,154,10.5"/>
		</g>
		<path class="st1" d="M147.5,27.2H144l-1.2-3.5h-6.1l-1.2,3.5h-3.3l5.8-16.1h3.8L147.5,27.2z M142.3,21.5L140,14l-2.3,7.5
			C137.7,21.5,142.3,21.5,142.3,21.5z"/>
		<path class="st1" d="M173.6,13.8H169v13.6h-3.5V13.8h-4.6v-2.7h12.7C173.6,11.1,173.6,13.8,173.6,13.8z"/>
		<path class="st1" d="M178.7,27.2h-3.5V11.1h3.5V27.2z"/>
		<path class="st1" d="M206.5,13.8h-6.3c-0.4,0-0.8,0-1,0.2c-0.2,0.2-0.2,0.4-0.2,0.8v3.1h7.3v2.7h-7.3v3.3c0,0.4,0,0.6,0.2,0.8
			c0.2,0.2,0.4,0.2,1,0.2h6.5v2.5h-7.7c-1.2,0-1.9-0.2-2.5-0.8c-0.6-0.4-0.8-1.3-0.8-2.5v-9.8c0-1.2,0.2-1.9,0.8-2.5
			c0.6-0.4,1.3-0.8,2.5-0.8h7.5V13.8z"/>
	</g>
	<g>
		<path class="st1" d="M8.6,22.8c0-1.2-1-1.3-1.5-1.7c-1.3-0.4-1.7-0.6-3.5-1.2C1.2,19,0,18,0,15.5c0-3.3,2.7-4.6,6.1-4.6
			c1.7,0,3.5,0.4,5.4,1.2l-0.8,2.7c-2.1-0.8-3.3-1.2-4.4-1.2c-1.9,0-2.7,0.8-2.7,1.9c0,0.8,0.6,1.2,1.5,1.5c1.5,0.6,2.1,0.8,3.3,1.2
			c2.1,0.8,3.8,1.7,3.8,4.4c0,3.1-1.9,5-6.5,5c-1.9,0-3.8-0.6-5.8-1.5l1.2-2.7c1.7,0.8,2.9,1.5,4.6,1.5C7.9,24.9,8.6,24,8.6,22.8z"
			/>
		<path class="st1" d="M18.8,27.4h-3.5V11.3h3.5V27.4z"/>
		<path class="st1" d="M29,18.2h4.6c1.9,0,1.9,1,1.9,2.5v5.2c-1.5,1.5-3.8,1.9-5.6,1.9c-5.4,0-8.4-2.9-8.4-8.2s2.9-8.6,8.4-8.6
			c2.3,0,3.6,0.6,5.2,1.2l-0.8,2.5c-1.5-0.8-2.9-1.2-4.4-1.2c-3.5,0-5,2.3-5,5.8c0,3.1,1.5,5.6,5,5.6c0.6,0,1.7-0.2,2.3-0.4v-3.8H29
			C29,20.5,29,18.2,29,18.2z"/>
		<path class="st1" d="M41.8,11.3l7.1,10.5V11.3h3.5v16.1h-3.5l-7.1-10.5v10.5h-3.5V11.3H41.8z"/>
		<path class="st1" d="M69.6,27.4h-3.5L65,24h-6.3l-1.2,3.5h-3.5l5.8-16.1h4L69.6,27.4z M64.2,21.5L61.8,14l-2.3,7.5H64.2z"/>
		<path class="st1" d="M81.1,13.8h-4.6v13.4h-3.6V13.8h-4.6v-2.5h12.8V13.8z"/>
		<path class="st1" d="M86.3,11.3v10c0,2.7,0.6,3.6,3.1,3.6s3.1-1.2,3.1-3.6v-10h3.5v10.2c0,4.4-2.1,6.1-6.5,6.1
			c-5,0-6.5-2.5-6.5-6.1V11.3H86.3z"/>
		<path class="st1" d="M110.8,16.1c0,2.7-1,4-3.1,4.6c0.6,0.6,1,1.3,1.5,2.3l2.1,4.2H108l-1.5-3.3c-0.6-1.3-1.3-2.9-2.7-3.1H102v6.3
			h-3.5V13.8c0-2.3,1-3.1,3.5-3.1h3.1C109.5,10.9,110.8,12.8,110.8,16.1z M103,13.4c-1,0-1.2,0.4-1.2,1v4h2.7c1.9,0,2.7-0.6,2.7-2.3
			c0.2-1.7-0.6-2.7-2.5-2.7H103z"/>
		<path class="st1" d="M124.3,13.8h-6.5c-1,0-1.2,0.4-1.2,1v3.1h7.5v2.7h-7.5v3.3c0,0.8,0.2,1,1.2,1h6.7v2.5h-7.9
			c-2.3,0-3.5-0.8-3.5-3.1v-9.8c0-2.3,1-3.1,3.5-3.1h7.7V13.8z"/>
	</g>
</g>
</svg>
